<svg xmlns="http://www.w3.org/2000/svg" viewBox="0 0 200 200">
  <defs>
    <linearGradient id="grad1" x1="0%" y1="0%" x2="100%" y2="100%">
      <stop offset="0%" style="stop-color:#fbbf24;stop-opacity:1" />
      <stop offset="100%" style="stop-color:#f97316;stop-opacity:1" />
    </linearGradient>
    <linearGradient id="grad2" x1="0%" y1="0%" x2="100%" y2="100%">
      <stop offset="0%" style="stop-color:#6366f1;stop-opacity:1" />
      <stop offset="100%" style="stop-color:#4f46e5;stop-opacity:1" />
    </linearGradient>
  </defs>
  
  <!-- Background - Amber/Orange Gradient -->
  <rect width="200" height="200" rx="40" fill="url(#grad1)"/>
  
  <!-- Car Icon (Material Design) -->
  <g transform="translate(100, 85) scale(3.5)">
    <path d="M18.92 6.01C18.72 5.42 18.16 5 17.5 5h-11c-.66 0-1.21.42-1.42 1.01L3 12v8c0 .55.45 1 1 1h1c.55 0 1-.45 1-1v-1h12v1c0 .55.45 1 1 1h1c.55 0 1-.45 1-1v-8l-2.08-5.99zM6.5 16c-.83 0-1.5-.67-1.5-1.5S5.67 13 6.5 13s1.5.67 1.5 1.5S7.33 16 6.5 16zm11 0c-.83 0-1.5-.67-1.5-1.5s.67-1.5 1.5-1.5 1.5.67 1.5 1.5-.67 1.5-1.5 1.5zM5 11l1.5-4.5h11L19 11H5z" fill="white"/>
  </g>
  
  <!-- CBS Text -->
  <text x="100" y="155" font-family="Inter, Arial, sans-serif" font-size="38" font-weight="900" fill="white" text-anchor="middle">CBS</text>
  <text x="100" y="175" font-family="Inter, Arial, sans-serif" font-size="13" font-weight="600" fill="white" text-anchor="middle" opacity="0.95">Car Broker System</text>
</svg>